<svg width="744" height="557" viewBox="0 0 744 557" fill="none" xmlns="http://www.w3.org/2000/svg">
<path d="M261.043 271.745C272.678 346.172 275.281 414.144 270.203 463.801C267.658 488.683 263.223 508.565 257.275 522.285C251.146 536.422 244.375 541.938 238.444 542.562C232.514 543.186 224.265 539.249 213.986 526.838C204.01 514.793 193.602 496.472 183.486 472.922C163.297 425.922 144.907 359.611 133.272 285.184C121.636 210.757 119.033 142.785 124.111 93.1284C126.656 68.2467 131.091 48.3645 137.04 34.6445C143.169 20.5074 149.939 14.9914 155.87 14.3676C161.801 13.7438 170.049 17.6801 180.328 30.0914C190.304 42.1365 200.712 60.4575 210.828 84.0075C231.017 131.007 249.407 197.318 261.043 271.745Z" stroke="#353535" stroke-width="14"/>
<path fill-rule="evenodd" clip-rule="evenodd" d="M0 462.643L158 86.1426H161L267.433 340.569L265.931 462.643H265.221L191.512 280.592L157.4 193.721L156.868 195.023L155.5 191.645L45.7795 462.643H0Z" fill="#353535"/>
<path d="M326.95 463V356.5H353.2C363.5 356.5 372.25 358.15 379.45 361.45C386.75 364.65 392.65 368.9 397.15 374.2C401.65 379.5 404.95 385.3 407.05 391.6C409.15 397.9 410.2 404.15 410.2 410.35C410.2 418.45 408.8 425.75 406 432.25C403.2 438.65 399.35 444.15 394.45 448.75C389.65 453.35 384.15 456.9 377.95 459.4C371.75 461.8 365.2 463 358.3 463H326.95ZM334.3 455.95H356.35C362.75 455.95 368.75 454.9 374.35 452.8C379.95 450.7 384.85 447.65 389.05 443.65C393.35 439.65 396.7 434.85 399.1 429.25C401.5 423.55 402.7 417.1 402.7 409.9C402.7 403.8 401.65 398 399.55 392.5C397.55 386.9 394.5 381.95 390.4 377.65C386.3 373.35 381.25 369.95 375.25 367.45C369.25 364.95 362.25 363.7 354.25 363.7H334.3V455.95ZM459.299 464.2C453.199 464.2 447.799 462.85 443.099 460.15C438.399 457.45 434.699 453.8 431.999 449.2C429.399 444.5 428.099 439.25 428.099 433.45C428.099 427.75 429.499 422.55 432.299 417.85C435.099 413.15 438.849 409.4 443.549 406.6C448.349 403.8 453.649 402.4 459.449 402.4C466.449 402.4 472.299 404.45 476.999 408.55C481.799 412.65 485.249 418 487.349 424.6L436.049 444.4L433.949 439.3L480.899 421L479.399 423.1C477.699 419.1 475.099 415.65 471.599 412.75C468.199 409.85 463.999 408.4 458.999 408.4C454.499 408.4 450.449 409.5 446.849 411.7C443.249 413.9 440.349 416.85 438.149 420.55C436.049 424.25 434.999 428.45 434.999 433.15C434.999 437.55 435.999 441.65 437.999 445.45C440.099 449.25 442.999 452.3 446.699 454.6C450.399 456.9 454.649 458.05 459.449 458.05C462.649 458.05 465.699 457.45 468.599 456.25C471.599 455.05 474.249 453.5 476.549 451.6L480.149 456.7C477.349 458.9 474.099 460.7 470.399 462.1C466.799 463.5 463.099 464.2 459.299 464.2ZM520.695 464.2C517.295 464.2 513.745 463.6 510.045 462.4C506.345 461.1 503.345 459.05 501.045 456.25L504.345 451.6C506.345 453.7 508.695 455.4 511.395 456.7C514.195 457.9 517.145 458.5 520.245 458.5C522.545 458.5 524.695 458.2 526.695 457.6C528.795 456.9 530.495 455.75 531.795 454.15C533.095 452.55 533.745 450.4 533.745 447.7C533.745 444.9 532.945 442.75 531.345 441.25C529.845 439.75 527.895 438.55 525.495 437.65C523.195 436.65 520.745 435.75 518.145 434.95C513.845 433.55 510.295 431.65 507.495 429.25C504.795 426.85 503.445 423.45 503.445 419.05C503.445 415.85 504.195 413.05 505.695 410.65C507.295 408.25 509.445 406.4 512.145 405.1C514.845 403.7 517.895 403 521.295 403C524.395 403 527.445 403.5 530.445 404.5C533.545 405.5 536.345 407.2 538.845 409.6L535.695 414.55C534.095 412.35 531.945 410.85 529.245 410.05C526.645 409.25 524.345 408.8 522.345 408.7C520.645 408.7 518.845 409.05 516.945 409.75C515.145 410.45 513.595 411.5 512.295 412.9C511.095 414.2 510.495 415.95 510.495 418.15C510.495 420.45 511.145 422.35 512.445 423.85C513.745 425.25 515.395 426.4 517.395 427.3C519.495 428.2 521.645 429.05 523.845 429.85C526.745 430.75 529.445 431.85 531.945 433.15C534.545 434.35 536.645 436 538.245 438.1C539.945 440.1 540.795 442.8 540.795 446.2C540.795 449.6 540.045 452.7 538.545 455.5C537.045 458.2 534.795 460.35 531.795 461.95C528.895 463.45 525.195 464.2 520.695 464.2ZM562.12 404.35H569.17V463H562.12V404.35ZM560.62 382.75C560.62 381.35 561.17 380.2 562.27 379.3C563.37 378.3 564.57 377.8 565.87 377.8C567.27 377.8 568.47 378.3 569.47 379.3C570.47 380.2 570.97 381.35 570.97 382.75C570.97 384.25 570.47 385.5 569.47 386.5C568.47 387.4 567.27 387.85 565.87 387.85C564.57 387.85 563.37 387.35 562.27 386.35C561.17 385.35 560.62 384.15 560.62 382.75ZM621.911 491.65C618.611 491.65 615.461 491.25 612.461 490.45C609.461 489.75 606.511 488.5 603.611 486.7C600.711 484.9 597.711 482.55 594.611 479.65L598.811 474.85C603.111 478.95 607.111 481.7 610.811 483.1C614.511 484.6 618.111 485.35 621.611 485.35C627.711 485.35 632.561 484.35 636.161 482.35C639.761 480.45 642.361 477.85 643.961 474.55C645.561 471.35 646.411 467.75 646.511 463.75L646.661 444.7L648.311 446.5C646.311 451.7 642.711 455.95 637.511 459.25C632.411 462.55 626.611 464.2 620.111 464.2C614.611 464.2 609.561 462.85 604.961 460.15C600.461 457.35 596.861 453.65 594.161 449.05C591.461 444.35 590.111 439.15 590.111 433.45C590.111 427.35 591.511 422 594.311 417.4C597.111 412.8 600.911 409.2 605.711 406.6C610.511 403.9 615.811 402.55 621.611 402.55C627.011 402.55 632.111 403.95 636.911 406.75C641.811 409.55 645.361 413.25 647.561 417.85L646.661 421.15L647.411 404.35H653.711V463.9C653.711 468.7 652.611 473.2 650.411 477.4C648.311 481.7 644.911 485.15 640.211 487.75C635.611 490.35 629.511 491.65 621.911 491.65ZM597.161 433.3C597.161 437.9 598.261 442.1 600.461 445.9C602.661 449.6 605.611 452.6 609.311 454.9C613.111 457.1 617.311 458.2 621.911 458.2C626.311 458.2 630.311 457.25 633.911 455.35C637.511 453.35 640.461 450.7 642.761 447.4C645.061 444.1 646.361 440.55 646.661 436.75V428.05C645.861 424.25 644.261 420.9 641.861 418C639.561 415.1 636.661 412.8 633.161 411.1C629.761 409.4 626.011 408.55 621.911 408.55C617.311 408.55 613.111 409.6 609.311 411.7C605.611 413.8 602.661 416.7 600.461 420.4C598.261 424.1 597.161 428.4 597.161 433.3ZM686.629 404.35L687.379 422.8L686.479 419.2C688.179 414.1 691.379 410.1 696.079 407.2C700.879 404.2 706.179 402.7 711.979 402.7C717.479 402.7 721.929 404.35 725.329 407.65C728.729 410.85 730.479 415.05 730.579 420.25V463H723.379V422.2C723.279 418.4 722.079 415.25 719.779 412.75C717.479 410.25 714.129 408.95 709.729 408.85C705.829 408.85 702.179 409.8 698.779 411.7C695.379 413.6 692.629 416.25 690.529 419.65C688.529 423.05 687.529 427 687.529 431.5V463H680.479V404.35H686.629Z" fill="#353535"/>
</svg>
